# xmcd
#
# Track frame offsets: 
#        150
#        11258
#        31590
#        41769
#        56926
#        70480
#        78474
#        89723
#        105687
#        118980
#        136138
#        153837
#        164406
#        182130
#
# Disc length: 2636 seconds
#
# Revision: 0
# Processed by: cddbd v1.5.1PL0 Copyright (c) Steve Scherf et al.
# Submitted via: ExactAudioCopy v0.95a5
#
DISCID=bc0a4a0e
DTITLE=Julia Von Miller Quartett - Wishing Well
DYEAR=2002
DGENRE=Swing
TTITLE0=Just One Kiss
TTITLE1=Reflections
TTITLE2=I Hear Music
TTITLE3=Good Morning
TTITLE4=Wonderful You
TTITLE5=Autumn Leaves
TTITLE6=Cheek To Cheek
TTITLE7=Up From The Skies
TTITLE8=Keep On Moving
TTITLE9=The Waver
TTITLE10=Hidden Ways
TTITLE11=If I Were A Bell
TTITLE12=Manhatten
TTITLE13=Wishing Well
EXTD=
EXTT0=
EXTT1=
EXTT2=
EXTT3=
EXTT4=
EXTT5=
EXTT6=
EXTT7=
EXTT8=
EXTT9=
EXTT10=
EXTT11=
EXTT12=
EXTT13=
PLAYORDER=
